<svg id="SvgjsSvg1001" width="288" height="288" xmlns="http://www.w3.org/2000/svg" version="1.1" xmlns:xlink="http://www.w3.org/1999/xlink" xmlns:svgjs="http://svgjs.com/svgjs"><defs id="SvgjsDefs1002"></defs><g id="SvgjsG1008" transform="matrix(1,0,0,1,0,0)"><svg xmlns="http://www.w3.org/2000/svg" width="288" height="288" enable-background="new 0 0 512 512" viewBox="0 0 512 512"><linearGradient id="a" x1="256" x2="256" y1="436" y2="76" gradientUnits="userSpaceOnUse"><stop offset="0" stop-color="#4ea8de" class="stopColora93aff svgShape"></stop><stop offset="1" stop-color="#80ffdb" class="stopColorff81ff svgShape"></stop></linearGradient><path fill="url(#a)" d="m511.552 267.362-30-120c-1.669-6.677-7.669-11.362-14.552-11.362h-136v-45c0-8.284-6.716-15-15-15h-301c-8.284 0-15 6.716-15 15v300c0 8.284 6.716 15 15 15h48.58c6.192 17.459 22.865 30 42.42 30s36.228-12.541 42.42-30h216.16c6.192 17.459 22.865 30 42.42 30s36.228-12.541 42.42-30h47.58c8.284 0 15-6.716 15-15v-120c0-1.158-.21-2.69-.448-3.638zm-405.552 138.638c-8.271 0-15-6.729-15-15s6.729-15 15-15 15 6.729 15 15-6.729 15-15 15zm195-30h-152.58c-6.192-17.459-22.865-30-42.42-30s-36.228 12.541-42.42 30h-33.58v-270h271zm91-210h63.288l22.5 90h-85.788zm15 240c-8.271 0-15-6.729-15-15s6.729-15 15-15 15 6.729 15 15-6.729 15-15 15zm75-30h-32.58c-6.192-17.459-22.865-30-42.42-30s-36.228 12.541-42.42 30h-33.58v-210h31v105c0 8.284 6.716 15 15 15h105zm-359.72-151.28c6.467 34.823 37.052 61.28 73.72 61.28h60c8.284 0 15-6.716 15-15s-6.716-15-15-15h-60c-19.555 0-36.228-12.541-42.42-30h42.42c8.284 0 15-6.716 15-15s-6.716-15-15-15h-60c-19.557 0-36.239-12.539-42.43-30h102.43c24.813 0 45 20.187 45 45 0 8.284 6.716 15 15 15s15-6.716 15-15c0-41.355-33.645-75-75-75h-120c-8.284 0-15 6.716-15 15 0 36.668 26.457 67.253 61.28 73.72z"></path></svg></g></svg>